<svg id="Laag_1" data-name="Laag 1" xmlns="http://www.w3.org/2000/svg" xmlns:xlink="http://www.w3.org/1999/xlink" viewBox="0 0 150.02 150.02"><defs><linearGradient id="Naamloos_verloop_16" x1="70" y1="95.55" x2="138.19" y2="95.55" gradientUnits="userSpaceOnUse"><stop offset="0" stop-color="#3c8ce7"/><stop offset="1" stop-color="#00eaff"/></linearGradient><linearGradient id="Naamloos_verloop_16-2" x1="98.98" y1="153.51" x2="109.21" y2="153.51" xlink:href="#Naamloos_verloop_16"/><linearGradient id="Naamloos_verloop_16-3" x1="98.98" y1="37.59" x2="109.21" y2="37.59" xlink:href="#Naamloos_verloop_16"/><linearGradient id="Naamloos_verloop_16-4" x1="29.08" y1="95.55" x2="63.18" y2="95.55" xlink:href="#Naamloos_verloop_16"/><linearGradient id="Naamloos_verloop_16-5" x1="145.01" y1="95.55" x2="179.11" y2="95.55" xlink:href="#Naamloos_verloop_16"/><linearGradient id="Naamloos_verloop_16-6" x1="49.88" y1="136.55" x2="76.31" y2="136.55" xlink:href="#Naamloos_verloop_16"/><linearGradient id="Naamloos_verloop_16-7" x1="131.89" y1="54.55" x2="158.31" y2="54.55" xlink:href="#Naamloos_verloop_16"/><linearGradient id="Naamloos_verloop_16-8" x1="49.88" y1="54.55" x2="76.31" y2="54.55" xlink:href="#Naamloos_verloop_16"/><linearGradient id="Naamloos_verloop_16-9" x1="131.89" y1="136.55" x2="158.31" y2="136.55" xlink:href="#Naamloos_verloop_16"/></defs><title>afternoon</title><path d="M104.1,61.45a34.1,34.1,0,1,0,34.1,34.1A34.2,34.2,0,0,0,104.1,61.45Zm0,58A23.87,23.87,0,1,1,128,95.55,23.94,23.94,0,0,1,104.1,119.42Z" transform="translate(-29.08 -20.54)" fill="url(#Naamloos_verloop_16)"/><path d="M104.1,136.46A5,5,0,0,0,99,141.58v23.87a5.11,5.11,0,0,0,10.23,0V141.58A5,5,0,0,0,104.1,136.46Z" transform="translate(-29.08 -20.54)" fill="url(#Naamloos_verloop_16-2)"/><path d="M104.1,54.63a5,5,0,0,0,5.11-5.11V25.65a5.11,5.11,0,0,0-10.23,0V49.52A5,5,0,0,0,104.1,54.63Z" transform="translate(-29.08 -20.54)" fill="url(#Naamloos_verloop_16-3)"/><path d="M63.18,95.55a5,5,0,0,0-5.11-5.11H34.2a5.11,5.11,0,0,0,0,10.23H58.07A5,5,0,0,0,63.18,95.55Z" transform="translate(-29.08 -20.54)" fill="url(#Naamloos_verloop_16-4)"/><path d="M174,90.43H150.13a5.11,5.11,0,1,0,0,10.23H174A5.11,5.11,0,1,0,174,90.43Z" transform="translate(-29.08 -20.54)" fill="url(#Naamloos_verloop_16-5)"/><path d="M67.61,124.87l-16.2,16.2a4.94,4.94,0,0,0,0,7.16,4.94,4.94,0,0,0,7.16,0L74.77,132A5.06,5.06,0,0,0,67.61,124.87Z" transform="translate(-29.08 -20.54)" fill="url(#Naamloos_verloop_16-6)"/><path d="M137,67.76a4.91,4.91,0,0,0,3.58-1.53L156.78,50a5.06,5.06,0,1,0-7.16-7.16l-16.2,16.2A5.11,5.11,0,0,0,137,67.76Z" transform="translate(-29.08 -20.54)" fill="url(#Naamloos_verloop_16-7)"/><path d="M67.61,66.23a4.94,4.94,0,0,0,7.16,0,4.94,4.94,0,0,0,0-7.16l-16.2-16.2A5.06,5.06,0,1,0,51.42,50Z" transform="translate(-29.08 -20.54)" fill="url(#Naamloos_verloop_16-8)"/><path d="M140.58,124.87a5.06,5.06,0,0,0-7.16,7.16l16.2,16.2a4.94,4.94,0,0,0,7.16,0,4.94,4.94,0,0,0,0-7.16Z" transform="translate(-29.08 -20.54)" fill="url(#Naamloos_verloop_16-9)"/></svg>