<svg id="Laag_1" data-name="Laag 1" xmlns="http://www.w3.org/2000/svg" xmlns:xlink="http://www.w3.org/1999/xlink" viewBox="0 0 161.01 125.56"><defs><linearGradient id="Naamloos_verloop_115" x1="-138.97" y1="435.15" x2="-138.97" y2="407.65" gradientTransform="matrix(5.22, 0, 0, -5.22, 866.02, 2293.12)" gradientUnits="userSpaceOnUse"><stop offset="0" stop-color="#f54ea2"/><stop offset="1" stop-color="#ff7676"/></linearGradient><linearGradient id="Naamloos_verloop_115-2" x1="-146.53" y1="435.15" x2="-146.53" y2="407.65" xlink:href="#Naamloos_verloop_115"/><linearGradient id="Naamloos_verloop_115-3" x1="-154.11" y1="435.15" x2="-154.11" y2="407.65" xlink:href="#Naamloos_verloop_115"/><linearGradient id="Naamloos_verloop_115-4" x1="-146.18" y1="435.15" x2="-146.18" y2="407.65" xlink:href="#Naamloos_verloop_115"/></defs><title>evening</title><path d="M136.09,67.78a4.77,4.77,0,0,0,3.48-1.49l7.79-7.79a4.92,4.92,0,1,0-7-7l-7.79,7.79A5,5,0,0,0,136.09,67.78Z" transform="translate(-21.8 -32)" fill="url(#Naamloos_verloop_115)"/><path d="M100.48,53.2a4.88,4.88,0,0,0,5-5V37a5,5,0,0,0-9.94,0V48.23A4.88,4.88,0,0,0,100.48,53.2Z" transform="translate(-21.8 -32)" fill="url(#Naamloos_verloop_115-2)"/><path d="M61.39,66.29a5.05,5.05,0,0,0,3.48,1.49,5,5,0,0,0,3.48-8.45l-8-8a4.92,4.92,0,0,0-7,7Z" transform="translate(-21.8 -32)" fill="url(#Naamloos_verloop_115-3)"/><path d="M26.76,103.39c4.64,0,6.63,1.66,9.44,4,3.48,2.65,7.62,6,15.74,6,8,0,12.26-3.31,15.74-6,2.82-2.32,5-4,9.44-4,4.64,0,6.63,1.66,9.44,4,3.48,2.65,7.62,6,15.74,6,8,0,12.26-3.31,15.74-6,2.82-2.32,5-4,9.44-4,4.64,0,6.63,1.66,9.44,4,3.48,2.65,7.62,6,15.74,6s12.26-3.31,15.74-6c2.82-2.32,5-4,9.44-4a5,5,0,0,0,0-9.94c-8,0-12.26,3.31-15.74,6-2.82,2.32-5,4-9.44,4-4.64,0-6.63-1.66-9.44-4-2.82-2.15-6.13-4.8-11.6-5.63a31.66,31.66,0,0,0-62.78,1.16,24.94,24.94,0,0,0-7.45,4.64c-2.82,2.32-5,4-9.44,4s-6.63-1.66-9.44-4c-3.48-2.65-7.62-6-15.74-6A4.89,4.89,0,1,0,26.76,103.39Zm73.55-26.67a21.67,21.67,0,0,1,21.2,17.39,24.7,24.7,0,0,0-9.77,5.3c-2.82,2.32-5,4-9.44,4-4.64,0-6.63-1.66-9.44-4-3.15-2.48-7-5.47-13.58-6A21.69,21.69,0,0,1,100.31,76.72Z" transform="translate(-21.8 -32)" fill="url(#Naamloos_verloop_115-4)"/><path d="M177.84,115c-8,0-12.26,3.31-15.74,6-2.82,2.32-5,4-9.44,4-4.64,0-6.63-1.66-9.44-4-3.48-2.65-7.62-6-15.74-6-8,0-12.26,3.31-15.74,6-2.82,2.32-5,4-9.44,4-4.64,0-6.63-1.66-9.44-4-3.48-2.65-7.62-6-15.74-6s-12.26,3.31-15.74,6c-2.82,2.32-5,4-9.44,4s-6.63-1.66-9.44-4c-3.48-2.65-7.62-6-15.74-6a5,5,0,1,0,0,9.94c4.64,0,6.63,1.66,9.44,4,3.48,2.65,7.62,6,15.74,6,8,0,12.26-3.31,15.74-6,2.82-2.32,5-4,9.44-4,4.64,0,6.63,1.66,9.44,4,3.48,2.65,7.62,6,15.74,6,8,0,12.26-3.31,15.74-6,2.82-2.32,5-4,9.44-4,4.64,0,6.63,1.66,9.44,4,3.48,2.65,7.62,6,15.74,6s12.26-3.31,15.74-6c2.82-2.32,5-4,9.44-4A5,5,0,0,0,177.84,115Z" transform="translate(-21.8 -32)" fill="url(#Naamloos_verloop_115-4)"/><path d="M177.84,137.68c-8,0-12.26,3.31-15.74,6-2.82,2.32-5,4-9.44,4-4.64,0-6.63-1.66-9.44-4-3.48-2.65-7.62-6-15.74-6-8,0-12.26,3.31-15.74,6-2.82,2.32-5,4-9.44,4-4.64,0-6.63-1.66-9.44-4-3.48-2.65-7.62-6-15.74-6s-12.26,3.31-15.74,6c-2.82,2.32-5,4-9.44,4s-6.63-1.66-9.44-4c-3.48-2.65-7.62-6-15.74-6a5,5,0,1,0,0,9.94c4.64,0,6.63,1.66,9.44,4,3.48,2.65,7.62,6,15.74,6,8,0,12.26-3.31,15.74-6,2.82-2.32,5-4,9.44-4,4.64,0,6.63,1.66,9.44,4,3.48,2.65,7.62,6,15.74,6,8,0,12.26-3.31,15.74-6,2.82-2.32,5-4,9.44-4,4.64,0,6.63,1.66,9.44,4,3.48,2.65,7.62,6,15.74,6s12.26-3.31,15.74-6c2.82-2.32,5-4,9.44-4A5,5,0,0,0,177.84,137.68Z" transform="translate(-21.8 -32)" fill="url(#Naamloos_verloop_115-4)"/></svg>