<svg id="Laag_1" data-name="Laag 1" xmlns="http://www.w3.org/2000/svg" xmlns:xlink="http://www.w3.org/1999/xlink" viewBox="0 0 106.08 106.07"><defs><linearGradient id="Naamloos_verloop_27" x1="100" y1="155.3" x2="100" y2="49.22" gradientTransform="matrix(1, 0, 0, -1, 0, 202)" gradientUnits="userSpaceOnUse"><stop offset="0" stop-color="#ffe985"/><stop offset="1" stop-color="#fa742b"/></linearGradient></defs><title>morning</title><path d="M63.74,67.42c0-4.65,3.29-7.58,5.94-9.94s4.42-4.07,4.42-6.64a4.14,4.14,0,0,1,8.29,0c0,6.41-4.16,10.12-7.2,12.83C73.64,65.06,72,66.49,72,67.42A4.14,4.14,0,1,1,63.74,67.42Zm22.79,4.14a4.14,4.14,0,0,0,4.14-4.14c0-.93,1.61-2.36,3.16-3.75,3-2.71,7.2-6.41,7.2-12.83a4.14,4.14,0,1,0-8.29,0c0,2.57-1.68,4.2-4.42,6.64s-5.94,5.29-5.94,9.94A4.14,4.14,0,0,0,86.53,71.57Zm18.65,0a4.14,4.14,0,0,0,4.14-4.14c0-.93,1.61-2.36,3.16-3.75,3-2.71,7.2-6.41,7.2-12.83a4.14,4.14,0,0,0-8.29,0c0,2.57-1.68,4.2-4.42,6.64S101,62.77,101,67.42A4.14,4.14,0,0,0,105.18,71.57ZM153,96.48v1a29.06,29.06,0,0,1-9.91,21.58c-5.6,5.08-12.77,8.12-19.19,8.12h-0.46l-0.18,0-0.25,0h0l-0.1,0-0.27-.08-0.14-.05-0.23-.09-0.17-.08-0.19-.09-0.19-.11-0.15-.1-0.19-.14-0.13-.1-0.17-.15-0.13-.12-0.14-.16-0.12-.15-0.11-.15-0.12-.17-0.09-.15-0.11-.2-0.07-.15-0.09-.21-0.06-.17-0.07-.21c0-.07,0-0.13-0.05-0.2s0-.12,0-0.18,0-.17,0-0.25,0-.1,0-0.15,0-.19,0-0.29,0-.07,0-0.11v0c0-.09,0-0.17,0-0.26s0-.12,0-0.17,0-.12,0-0.18,0-.17,0-0.25v0l7.63-34H56.3l7.76,34.09a28.62,28.62,0,0,0,48.08,13.94A4.14,4.14,0,1,1,118,142q-1.31,1.3-2.71,2.45h17.47a4.14,4.14,0,1,1,0,8.29H51.11a4.14,4.14,0,0,1,0-8.29H68.66A37,37,0,0,1,56,124.07L47.07,84.92a4.14,4.14,0,0,1,4-5.06h81.58a4.14,4.14,0,0,1,4,5.05l-1.66,7.38h13.82A4.14,4.14,0,0,1,153,96.48Zm-8.55,4.09H133.21l-3.89,17.32C136,115.54,143.09,109.26,144.49,100.57Z" transform="translate(-46.96 -46.7)" fill="url(#Naamloos_verloop_27)"/></svg>