<svg id="Laag_1" data-name="Laag 1" xmlns="http://www.w3.org/2000/svg" xmlns:xlink="http://www.w3.org/1999/xlink" viewBox="0 0 177.1 177.1"><defs><linearGradient id="Naamloos_verloop_3" x1="15.64" y1="105.58" x2="192.74" y2="105.58" gradientTransform="matrix(1, 0, 0, -1, 0, 202)" gradientUnits="userSpaceOnUse"><stop offset="0" stop-color="#3b2667"/><stop offset="1" stop-color="#bc78ec"/></linearGradient></defs><title>night</title><path d="M189.17,101.16a6.92,6.92,0,0,0-7.79.76A58.69,58.69,0,0,1,98.71,19.24a6.92,6.92,0,0,0-6.24-11.3,88.93,88.93,0,0,0-50.76,151,88.92,88.92,0,0,0,151-50.77A6.92,6.92,0,0,0,189.17,101.16Zm-137.68,48A75.16,75.16,0,0,1,78.24,25.68a72.55,72.55,0,0,0,96.69,96.7C155.95,173.34,90.18,187.84,51.49,149.14Z" transform="translate(-15.64 -7.87)" fill="url(#Naamloos_verloop_3)"/></svg>